<svg width="153" height="52" viewBox="0 0 153 52" fill="none" xmlns="http://www.w3.org/2000/svg">
<path d="M7.76534 23.3826L10.4107 22.0738L14.592 15.7919L15.872 15.2685L17.2374 21.6376L15.4454 21.8993L14.08 19.2819L13.056 23.3826H17.5787L22.272 24.604L24.1494 23.3826L27.3067 26.698L28.672 20.5906L30.8907 22.8591L32.256 20.9396L34.4747 20.3289L37.7174 17.2752L38.2294 15.7919L40.8747 16.2282L41.9841 17.7114L40.0214 21.8993L44.8854 19.3691V18.1476L46.7627 17.7114L48.8107 19.8054L50.8587 17.2752V15.5302L54.1867 13.1745L55.5521 11.1678H57.6854L61.4401 3.40268L64.6828 0L65.8774 1.91946L64.0001 4.36242L64.6828 5.93289L66.4748 6.28188L67.9254 12.7383V18.1476L70.4854 21.7248L71.7654 26.698L67.3281 23.8188L65.3654 15.5302L64.1707 15.7919L64.0001 21.3758L60.7574 26.698L59.8187 34.8121L62.0374 35.3356L62.9761 34.2013L65.1094 36.6443L66.7307 43.9732L66.5601 48.6846H64.5121L63.7441 42.0537L62.2934 44.0604L59.1361 43.3624L56.5761 41.1812L53.6747 42.2282L53.8454 46.9396L51.5414 47.5503L48.1281 50.1678L44.0321 49.6443L42.4107 48.6846L39.8507 49.1208L40.7041 50.1678L38.6561 51.3893L37.0347 50.604L33.9627 52L29.2694 49.6443L27.4774 45.4564L25.9414 45.6309L24.1494 44.1477L24.064 43.0134L18.3467 42.4027L17.408 45.5436L13.824 43.8859L12.032 40.8322H8.19201L7.76534 45.7181L5.54667 46.4161L4.43734 50.8658L3.584 50.0805L0 40.745L4.26667 38.651L3.584 34.5503L2.90134 30.3624L4.77867 27.6577L4.18134 26L6.74134 23.2081L7.76534 23.3826ZM64.5121 33.6779L68.4374 39.6107L69.7174 39.0872L68.0961 36.6443L64.5121 32.8054V33.6779ZM24.4054 21.6376V19.8926L27.392 17.7114L29.952 16.4027H26.9654L24.32 17.9732L22.6987 19.4564V21.6376H24.4054Z" fill="white"/>
<path d="M87.3574 31.9805H85.502V37H82.0742V22.7812H87.6699C89.3561 22.7812 90.6745 23.1556 91.625 23.9043C92.5755 24.653 93.0508 25.7109 93.0508 27.0781C93.0508 28.0677 92.849 28.888 92.4453 29.5391C92.0482 30.1901 91.4232 30.7174 90.5703 31.1211L93.5391 36.8535V37H89.8672L87.3574 31.9805ZM85.502 29.334H87.6699C88.321 29.334 88.8092 29.1647 89.1348 28.8262C89.4668 28.4811 89.6328 28.0026 89.6328 27.3906C89.6328 26.7786 89.4668 26.3001 89.1348 25.9551C88.8027 25.6035 88.3145 25.4277 87.6699 25.4277H85.502V29.334ZM106.273 22.7812V32.0879C106.273 33.1426 106.049 34.0573 105.6 34.832C105.15 35.6003 104.506 36.1862 103.666 36.5898C102.826 36.9935 101.833 37.1953 100.688 37.1953C98.9557 37.1953 97.5918 36.7461 96.5957 35.8477C95.5996 34.9492 95.0918 33.7188 95.0723 32.1562V22.7812H98.5195V32.2246C98.5586 33.7806 99.2812 34.5586 100.688 34.5586C101.397 34.5586 101.934 34.3633 102.299 33.9727C102.663 33.582 102.846 32.9473 102.846 32.0684V22.7812H106.273ZM115.756 33.2207C115.756 32.7194 115.577 32.3288 115.219 32.0488C114.867 31.7689 114.245 31.4792 113.354 31.1797C112.462 30.8802 111.732 30.5905 111.166 30.3105C109.324 29.4056 108.402 28.1621 108.402 26.5801C108.402 25.7923 108.63 25.099 109.086 24.5C109.548 23.8945 110.199 23.4258 111.039 23.0938C111.879 22.7552 112.823 22.5859 113.871 22.5859C114.893 22.5859 115.808 22.7682 116.615 23.1328C117.429 23.4974 118.061 24.0182 118.51 24.6953C118.959 25.3659 119.184 26.1341 119.184 27H115.766C115.766 26.4206 115.587 25.9714 115.229 25.6523C114.877 25.3333 114.398 25.1738 113.793 25.1738C113.181 25.1738 112.696 25.3105 112.338 25.584C111.986 25.8509 111.811 26.1927 111.811 26.6094C111.811 26.974 112.006 27.306 112.396 27.6055C112.787 27.8984 113.474 28.2044 114.457 28.5234C115.44 28.8359 116.247 29.1745 116.879 29.5391C118.415 30.4245 119.184 31.6452 119.184 33.2012C119.184 34.4447 118.715 35.4212 117.777 36.1309C116.84 36.8405 115.554 37.1953 113.92 37.1953C112.768 37.1953 111.723 36.9902 110.785 36.5801C109.854 36.1634 109.151 35.597 108.676 34.8809C108.207 34.1582 107.973 33.3281 107.973 32.3906H111.41C111.41 33.1523 111.605 33.7155 111.996 34.0801C112.393 34.4382 113.035 34.6172 113.92 34.6172C114.486 34.6172 114.932 34.4967 115.258 34.2559C115.59 34.0085 115.756 33.6634 115.756 33.2207ZM128.275 33.2207C128.275 32.7194 128.096 32.3288 127.738 32.0488C127.387 31.7689 126.765 31.4792 125.873 31.1797C124.981 30.8802 124.252 30.5905 123.686 30.3105C121.843 29.4056 120.922 28.1621 120.922 26.5801C120.922 25.7923 121.15 25.099 121.605 24.5C122.068 23.8945 122.719 23.4258 123.559 23.0938C124.398 22.7552 125.342 22.5859 126.391 22.5859C127.413 22.5859 128.327 22.7682 129.135 23.1328C129.949 23.4974 130.58 24.0182 131.029 24.6953C131.479 25.3659 131.703 26.1341 131.703 27H128.285C128.285 26.4206 128.106 25.9714 127.748 25.6523C127.396 25.3333 126.918 25.1738 126.312 25.1738C125.701 25.1738 125.215 25.3105 124.857 25.584C124.506 25.8509 124.33 26.1927 124.33 26.6094C124.33 26.974 124.525 27.306 124.916 27.6055C125.307 27.8984 125.993 28.2044 126.977 28.5234C127.96 28.8359 128.767 29.1745 129.398 29.5391C130.935 30.4245 131.703 31.6452 131.703 33.2012C131.703 34.4447 131.234 35.4212 130.297 36.1309C129.359 36.8405 128.074 37.1953 126.439 37.1953C125.287 37.1953 124.242 36.9902 123.305 36.5801C122.374 36.1634 121.671 35.597 121.195 34.8809C120.727 34.1582 120.492 33.3281 120.492 32.3906H123.93C123.93 33.1523 124.125 33.7155 124.516 34.0801C124.913 34.4382 125.554 34.6172 126.439 34.6172C127.006 34.6172 127.452 34.4967 127.777 34.2559C128.109 34.0085 128.275 33.6634 128.275 33.2207ZM137.113 37H133.695V22.7812H137.113V37ZM147.748 34.3438H143.051L142.23 37H138.568L143.783 22.7812H147.006L152.26 37H148.578L147.748 34.3438ZM143.871 31.6973H146.928L145.395 26.7656L143.871 31.6973Z" fill="white"/>
</svg>
